<?xml version="1.0" encoding="UTF-8"?>
<!DOCTYPE svg PUBLIC "-//W3C//DTD SVG 1.1//EN" "http://www.w3.org/Graphics/SVG/1.1/DTD/svg11.dtd">
<svg version="1.1" xmlns="http://www.w3.org/2000/svg" xmlns:xlink="http://www.w3.org/1999/xlink" x="0" y="0" width="191.156" height="23" viewBox="0, 0, 191.156, 23">
  <defs>
    <clipPath id="Clip_1">
      <path d="M0,0 L191.156,0 L191.156,23 L0,23 z"/>
    </clipPath>
  </defs>
  <g clip-path="url(#Clip_1)" id="Layer_1">
    <path d="M120.941,6.155 L122.453,6.155 L122.453,2.833 L124.114,2.449 L124.114,6.155 L126.713,6.155 L126.713,7.305 L124.114,7.305 L124.114,16.377 C124.114,17.314 124.54,17.783 125.435,17.783 C125.925,17.783 126.478,17.634 126.904,17.42 L127.181,18.421 C126.606,18.784 125.861,18.996 124.86,18.996 C123.539,18.996 122.432,18.379 122.432,16.526 L122.432,7.305 L120.92,7.305 L120.92,6.155 L120.941,6.155 z" fill="#7A8085"/>
    <path d="M131.739,7.773 C132.825,6.709 134.273,5.899 135.764,5.899 C137.723,5.899 138.937,6.943 138.937,9.179 L138.937,17.612 L140.555,17.847 L140.555,18.741 L137.233,18.741 L137.233,9.584 C137.233,7.986 136.616,7.305 135.338,7.305 C134.166,7.305 132.74,8.008 131.739,8.902 L131.739,17.591 L133.442,17.804 L133.442,18.72 L128.416,18.72 L128.416,17.804 L130.078,17.591 L130.078,1.299 L128.374,1.044 L128.374,0.021 L131.739,0.021 L131.739,7.773 L131.739,7.773 z" fill="#7A8085"/>
    <path d="M141.854,12.437 C141.854,7.688 143.92,5.899 146.731,5.899 C149.648,5.899 151.267,7.646 151.267,11.969 L151.267,12.629 L143.6,12.629 C143.621,16.377 144.686,17.825 147.284,17.825 C148.605,17.825 149.584,17.399 150.5,16.782 L151.096,17.612 C150.01,18.507 148.754,18.997 147.008,18.997 C143.941,18.975 141.854,17.293 141.854,12.437 z M143.621,11.522 L149.521,11.522 C149.521,8.348 148.754,6.986 146.709,6.986 C144.857,6.986 143.771,8.263 143.621,11.522 z" fill="#7A8085"/>
    <path d="M162.682,7.858 C163.768,6.708 165.024,5.878 166.515,5.878 C168.474,5.878 169.646,6.921 169.646,9.158 L169.646,17.634 L171.286,17.868 L171.286,18.698 L167.963,18.698 L167.963,9.69 C167.963,8.071 167.388,7.326 166.089,7.326 C164.918,7.326 163.789,8.029 162.81,8.923 L162.81,17.612 L164.449,17.846 L164.449,18.741 L161.127,18.741 L161.127,9.69 C161.127,8.071 160.552,7.326 159.253,7.326 C158.082,7.326 156.953,8.029 155.973,8.923 L155.973,17.612 L157.677,17.846 L157.677,18.741 L152.651,18.741 L152.651,17.846 L154.312,17.612 L154.312,7.475 L152.609,7.22 L152.609,6.155 L155.654,6.155 L155.888,7.858 C156.974,6.73 158.188,5.899 159.679,5.899 C161.212,5.878 162.277,6.517 162.682,7.858 z" fill="#7A8085"/>
    <path d="M171.925,12.437 C171.925,7.688 173.991,5.899 176.802,5.899 C179.719,5.899 181.338,7.646 181.338,11.969 L181.338,12.629 L173.671,12.629 C173.692,16.377 174.757,17.825 177.355,17.825 C178.676,17.825 179.655,17.399 180.571,16.782 L181.167,17.612 C180.081,18.507 178.825,18.997 177.079,18.997 C174.012,18.975 171.925,17.293 171.925,12.437 z M173.692,11.522 L179.591,11.522 C179.591,8.348 178.825,6.986 176.78,6.986 C174.928,6.986 173.863,8.263 173.692,11.522 z" fill="#7A8085"/>
    <path d="M183.084,18.038 L183.084,15.504 L184.234,15.504 L184.618,17.442 C185.278,17.719 185.789,17.889 186.811,17.889 C188.664,17.889 189.558,17.037 189.558,15.547 C189.558,14.056 188.834,13.481 186.79,12.885 C184.831,12.288 183.382,11.458 183.382,9.136 C183.382,7.39 184.639,5.899 187.195,5.899 C188.664,5.899 189.835,6.176 190.687,6.687 L190.687,9.158 L189.558,9.158 L189.132,7.348 C188.579,7.092 187.961,7.007 187.258,7.007 C185.789,7.007 184.852,7.731 184.852,8.987 C184.852,10.308 185.576,10.819 187.365,11.351 C189.431,12.012 191.156,12.714 191.156,15.398 C191.156,17.761 189.431,18.975 186.79,18.975 C185.235,18.975 183.957,18.635 183.084,18.038 z" fill="#7A8085"/>
    <path d="M38.312,9.988 C38.312,8.668 37.95,8.157 36.949,8.157 C36.119,8.157 35.096,8.625 34.394,9.2 L34.394,16.973 L35.842,17.165 L35.842,18.634 L30.092,18.634 L30.092,17.165 L31.583,16.973 L31.583,8.242 L30.092,7.922 L30.092,6.197 L33.925,6.197 L34.245,7.646 C35.373,6.559 36.63,5.878 38.142,5.878 C39.995,5.878 41.102,6.921 41.102,9.072 L41.102,16.973 L42.593,17.165 L42.593,18.634 L38.312,18.634 L38.312,9.988 L38.312,9.988 z" fill="#000000"/>
    <path d="M62.398,17.186 L62.398,18.655 L56.073,18.655 L56.073,17.186 L57.564,16.994 L57.564,8.263 L56.073,7.943 L56.073,6.218 L59.843,6.218 L60.226,8.178 C61.078,6.857 62.143,5.941 63.697,5.941 C63.868,5.941 64.059,5.963 64.187,6.005 L63.825,8.944 C63.548,8.816 63.25,8.774 62.867,8.774 C61.887,8.774 61.142,9.051 60.375,9.711 L60.375,16.952 L62.398,17.186 z" fill="#000000"/>
    <path d="M76.71,6.197 L78.094,6.197 L78.094,3.088 L80.543,2.556 L80.543,6.219 L82.971,6.219 L82.971,8.093 L80.543,8.093 L80.543,15.674 C80.543,16.59 80.884,16.995 81.629,16.995 C82.098,16.995 82.588,16.846 82.907,16.675 L83.354,18.358 C82.758,18.698 81.906,18.975 80.671,18.975 C78.967,18.975 78.094,18.166 78.094,16.036 L78.094,8.093 L76.71,8.093 L76.71,6.197 z" fill="#000000"/>
    <path d="M90.466,17.165 L90.466,18.634 L84.674,18.634 L84.674,17.165 L86.165,16.973 L86.165,8.242 L84.674,7.922 L84.674,6.197 L88.976,6.197 L88.976,16.973 L90.466,17.165 z M85.696,1.768 C85.696,0.788 86.463,-0 87.442,-0 C88.422,-0 89.189,0.767 89.189,1.768 C89.189,2.726 88.422,3.514 87.421,3.514 C86.463,3.514 85.696,2.726 85.696,1.768 z" fill="#000000"/>
    <path d="M98.325,7.901 L98.325,6.197 L103.053,6.197 L103.053,7.922 L101.924,8.114 L98.325,18.656 L95.663,18.656 L92.064,8.093 L90.999,7.922 L90.999,6.197 L96.259,6.197 L96.259,7.901 L95.024,8.093 L96.728,13.608 C97.047,14.652 97.196,15.504 97.367,16.483 L97.388,16.483 C97.537,15.525 97.771,14.524 98.048,13.587 L99.667,8.071 L98.325,7.901 z" fill="#000000"/>
    <path d="M75.687,17.122 C74.579,17.144 74.366,16.952 74.366,15.972 L74.366,9.796 C74.366,6.964 72.982,5.878 70.32,5.878 C68.382,5.878 66.742,6.453 65.422,7.283 L66.231,9.03 C67.36,8.455 68.467,8.093 69.724,8.093 C71.193,8.093 71.555,8.881 71.555,10.265 L71.555,11.032 L71.555,11.223 L71.555,12.778 L71.555,12.884 L71.555,16.121 C71.087,16.633 70.405,17.059 69.447,17.059 C68.382,17.059 67.871,16.526 67.871,15.035 C67.871,13.31 68.595,12.82 70.49,12.778 L70.49,11.223 C66.636,11.266 65.039,12.437 65.039,15.206 C65.039,17.847 66.487,18.975 68.659,18.975 C70.214,18.975 71.065,18.315 71.79,17.57 C72.045,18.57 72.833,18.975 73.898,18.975 C74.665,18.975 75.389,18.762 75.857,18.507 L75.687,17.122 z" fill="#000000"/>
    <path d="M54.497,17.122 C53.389,17.144 53.176,16.952 53.176,15.972 L53.176,9.796 C53.176,6.964 51.792,5.878 49.13,5.878 C47.192,5.878 45.552,6.453 44.232,7.283 L45.041,9.03 C46.17,8.455 47.277,8.093 48.534,8.093 C50.003,8.093 50.365,8.881 50.365,10.265 L50.365,11.032 L50.365,11.223 L50.365,12.778 L50.365,12.884 L50.365,16.121 C49.897,16.633 49.215,17.059 48.257,17.059 C47.192,17.059 46.681,16.526 46.681,15.035 C46.681,13.31 47.405,12.82 49.301,12.778 L49.301,11.223 C45.446,11.266 43.849,12.437 43.849,15.206 C43.849,17.847 45.297,18.975 47.469,18.975 C49.024,18.975 49.876,18.315 50.6,17.57 C50.855,18.57 51.643,18.975 52.708,18.975 C53.475,18.975 54.199,18.762 54.667,18.507 L54.497,17.122 z" fill="#000000"/>
    <path d="M107.653,13.055 L113.594,13.055 L113.594,11.948 C113.594,7.475 111.869,5.899 108.803,5.899 C105.63,5.899 103.628,7.795 103.628,12.416 C103.628,17.101 105.523,18.997 109.058,18.997 C110.954,18.997 112.231,18.507 113.467,17.527 L112.657,16.058 C111.678,16.675 110.868,17.059 109.463,17.059 C107.546,17.059 106.801,16.186 106.63,14.013 C106.588,13.694 106.567,13.098 106.567,12.459 C106.567,12.054 106.567,11.671 106.588,11.373 L106.588,11.351 C106.737,8.519 107.397,7.603 108.781,7.603 C110.4,7.603 110.783,8.583 110.783,11.351 L107.674,11.351 L107.674,13.055 L107.653,13.055 z" fill="#000000"/>
    <path d="M17.591,20.295 L0,20.295 L0,23 L17.591,23 L17.591,20.295 z" fill="#000000"/>
    <path d="M0,7.965 L0,18.954 L5.388,15.184 L5.388,11.734 L0,7.965 z" fill="#000000"/>
    <path d="M17.569,10.946 L17.569,0 L12.16,3.748 L12.16,7.134 L17.569,10.946 z" fill="#000000"/>
    <path d="M17.591,18.975 L17.569,12.288 L0,-0 L0,6.623 L17.591,18.975 z" fill="#000000"/>
  </g>
</svg>
